:SAMPLES-PER-SECOND 30
:FULLY-SPECIFIED
:DEGREES
100
root  -24.12 40.7116 -7.91273 -170.743 -85.9769 170.51
RightUpLeg  5.66407 -13.2091 -2.11088
RightLeg  20.1602 2.04132 0.858305
RightFoot  -8.27778 -0.113631 2.19002
RightToes  1.74622e-010 0 -3.6325e-017
Spine  4.17678 5.57106 11.5206
Spine1  5.2347 8.62333 -10.8805
HEad  -11.9048 -7.40257 5.45997
LeftShoulder1  7.2666 -10.6914 -44.581
LeftArm  9.36273 39.2989 -14.6081
LeftForeArm  177.682 -62.4007 -161.866
LeftHand  -0.244104 0.0205437 5.32207
RightShoulder  5.67581 9.10265 38.9409
RightArm  5.66364 -14.7743 36.875
RightForeArm  147.89 63.343 158.125
RightHand  0.266198 -11.5701 -6.58801
LeftUpLeg  -22.4001 7.41336 -0.434945
LeftLeg  28.0842 5.63553 3.85904
LeftFoot  -8.98006 0.16375 -5.35623
LeftToes  -6.36679e-011 4.33698e-011 -8.22343e-012
101
root  -26.3929 41.0807 -7.87452 -154.596 -87.2443 155.036
RightUpLeg  8.06036 -14.4205 -3.8664
RightLeg  19.9793 2.12076 0.876537
RightFoot  -2.78872 -0.29588 3.8162
RightToes  1.74622e-010 0 -3.6325e-017
Spine  2.52266 6.33436 10.3815
Spine1  5.22017 9.12203 -10.9214
HEad  -9.44299 -9.45219 5.5398
LeftShoulder1  7.00986 -10.6878 -42.9344
LeftArm  8.66686 43.8601 -12.3926
LeftForeArm  176.283 -61.9088 -162.091
LeftHand  -0.244104 0.0205437 5.32207
RightShoulder  5.50231 9.31751 36.9127
RightArm  11.803 -12.183 35.7703
RightForeArm  156.564 62.1065 160.024
RightHand  -0.21314 -14.199 1.93696
LeftUpLeg  -21.9515 10.4433 -2.95477
LeftLeg  14.964 4.55453 0.562525
LeftFoot  -9.53446 0.142503 -5.49125
LeftToes  -6.36679e-011 4.33698e-011 -8.22343e-012
102
root  -28.6074 40.9988 -7.79934 -136.256 -88.2232 136.156
RightUpLeg  9.03069 -13.2336 -4.33386
RightLeg  25.0274 -0.866524 -0.737789
RightFoot  -0.489853 -0.33112 3.45053
RightToes  1.74622e-010 0 -3.6325e-017
Spine  2.05929 6.51694 9.72969
Spine1  5.92494 9.25986 -10.6457
HEad  -8.82107 -10.7338 5.34324
LeftShoulder1  6.95792 -10.9548 -41.7574
LeftArm  5.9752 47.2078 -11.5566
LeftForeArm  175.153 -61.8143 -162.052
LeftHand  -0.244104 0.0205437 5.32207
RightShoulder  5.48965 9.68674 35.6435
RightArm  17.108 -8.98834 34.3516
RightForeArm  162.065 60.9535 161.427
RightHand  -0.54315 -14.1055 6.01183
LeftUpLeg  -20.0597 4.64795 -1.34918
LeftLeg  6.20332 11.4709 -3.40486
LeftFoot  -11.3319 0.0731827 -5.90758
LeftToes  -6.36679e-011 4.33698e-011 -8.22343e-012
103
root  -30.796 40.462 -7.68714 -117.757 -88.5511 116.217
RightUpLeg  9.1548 -10.1711 -4.49248
RightLeg  33.7755 -4.94516 -3.82609
RightFoot  -1.18983 -0.203529 2.18077
RightToes  1.74622e-010 0 -3.6325e-017
Spine  2.43829 6.35125 9.09216
Spine1  6.77677 9.15722 -10.1931
HEad  -8.96785 -11.0081 4.88224
LeftShoulder1  7.00967 -11.3746 -40.8103
LeftArm  1.78272 50.1073 -12.1749
LeftForeArm  175.652 -61.5709 -162.271
LeftHand  -0.244104 0.0205437 5.32207
RightShoulder  5.54775 9.94742 35.2768
RightArm  21.7811 -5.30462 32.956
RightForeArm  161.181 60.4618 161.694
RightHand  -0.471135 -13.2675 5.64163
LeftUpLeg  -18.7305 2.01958 -1.39971
LeftLeg  3.95818 14.7791 -4.58513
LeftFoot  -9.93755 0.112594 -5.07065
LeftToes  -6.36679e-011 4.33698e-011 -8.22343e-012
104
root  -32.9125 39.6293 -7.56912 -107.431 -87.7265 103.859
RightUpLeg  8.72649 -6.67258 -5.69674
RightLeg  44.24 -7.19151 -7.73056
RightFoot  -3.02476 -0.107161 1.20013
RightToes  1.74622e-010 0 -3.6325e-017
Spine  3.80295 5.85112 7.23089
Spine1  7.21858 8.61916 -9.19166
HEad  -9.56184 -10.1541 4.18241
LeftShoulder1  6.91429 -11.3151 -40.3828
LeftArm  -3.12672 51.8145 -13.6829
LeftForeArm  175.476 -61.1811 -162.547
LeftHand  -0.244104 0.0205437 5.32207
RightShoulder  5.61452 10.0696 35.3969
RightArm  25.0675 -1.32843 32.5905
RightForeArm  158.175 61.0141 161.027
RightHand  -0.510164 -13.2943 6.12325
LeftUpLeg  -19.0755 7.09418 -4.92861
LeftLeg  9.79408 11.2128 -2.31039
LeftFoot  -4.07838 0.0250682 -0.534459
LeftToes  -6.36679e-011 4.33698e-011 -8.22343e-012
105
root  -34.8714 38.6827 -7.47845 -102.634 -85.8084 96.4793
RightUpLeg  7.59727 -3.49054 -8.42566
RightLeg  54.9755 -7.06509 -11.0595
RightFoot  -4.78399 -0.072464 0.699536
RightToes  1.74622e-010 0 -3.6325e-017
Spine  6.43728 5.01637 3.79895
Spine1  7.33605 7.47652 -7.48153
HEad  -11.2782 -8.62358 3.6436
LeftShoulder1  6.59961 -10.4149 -41.1023
LeftArm  -8.39563 49.7903 -15.6325
LeftForeArm  173.61 -62.7858 -161.193
LeftHand  -0.244104 0.0205437 5.32207
RightShoulder  5.82466 10.2807 36.2641
RightArm  26.1469 2.14372 33.0849
RightForeArm  156.199 63.5281 158.82
RightHand  -0.762029 -13.8768 8.99224
LeftUpLeg  -20.7095 16.9424 -11.0075
LeftLeg  20.3107 2.0918 1.67196
LeftFoot  0.714401 -0.610556 6.00042
LeftToes  -6.36679e-011 4.33698e-011 -8.22343e-012
106
root  -36.6199 37.885 -7.40012 -100.063 -83.603 91.2476
RightUpLeg  5.25646 -1.16187 -11.7717
RightLeg  64.152 -5.67386 -13.1434
RightFoot  -6.21493 -0.0420425 -0.0106876
RightToes  1.74622e-010 0 -3.6325e-017
Spine  9.6999 4.09747 0.810073
Spine1  7.5114 6.3362 -6.64826
HEad  -13.3276 -7.43648 3.58864
LeftShoulder1  6.49245 -9.59555 -43.0716
LeftArm  -13.5035 43.1322 -17.3543
LeftForeArm  172.709 -68.5396 -155.341
LeftHand  -0.244104 0.0205437 5.32207
RightShoulder  6.34774 10.6992 38.6126
RightArm  24.797 3.14544 33.9086
RightForeArm  157.311 69.2407 152.559
RightHand  -0.921494 -13.305 11.9503
LeftUpLeg  -20.568 14.6428 -12.2149
LeftLeg  30.5685 4.95844 3.50372
LeftFoot  -1.39634 -0.840863 9.76729
LeftToes  -6.36679e-011 4.33698e-011 -8.22343e-012
107
root  -38.1632 37.5801 -7.30035 -102.408 -82.2202 91.7415
RightUpLeg  1.21451 0.468913 -14.012
RightLeg  69.7021 -4.76305 -14.8277
RightFoot  -7.31435 -0.0139365 -1.01291
RightToes  1.74622e-010 0 -3.6325e-017
Spine  12.2222 3.25595 0.49023
Spine1  7.69269 5.87228 -8.08965
HEad  -13.6858 -7.00063 3.76172
LeftShoulder1  7.07538 -9.94903 -45.8171
LeftArm  -18.3029 34.4946 -18.4611
LeftForeArm  170.199 -76.5857 -139.794
LeftHand  -0.244104 0.0205437 5.32207
RightShoulder  7.05251 11.0654 42.1333
RightArm  20.6999 0.720872 35.3902
RightForeArm  158.685 77.1664 135.344
RightHand  -0.790126 -11.1841 13.9764
LeftUpLeg  -18.6743 14.3971 -12.9844
LeftLeg  36.385 5.93476 5.02575
LeftFoot  -7.40873 -0.295928 9.56602
LeftToes  -6.36679e-011 4.33698e-011 -8.22343e-012
108
root  -39.5881 37.7923 -7.20341 -109.397 -82.2489 98.0822
RightUpLeg  -3.98897 1.12316 -14.2365
RightLeg  70.7166 -5.06592 -16.5657
RightFoot  -8.29489 -0.016414 -1.46472
RightToes  1.74622e-010 0 -3.6325e-017
Spine  13.269 2.46713 1.97281
Spine1  7.51098 5.54622 -9.64486
HEad  -12.1632 -6.36694 3.5001
LeftShoulder1  8.09192 -11.0569 -48.5034
LeftArm  -23.1612 27.6434 -19.9651
LeftForeArm  154.24 -81.4511 -109.32
LeftHand  -0.244104 0.0205437 5.32207
RightShoulder  7.55726 11.12 45.1465
RightArm  14.0974 -3.54022 37.2873
RightForeArm  139.249 81.9841 91.1596
RightHand  -0.455486 -8.23017 15.7693
LeftUpLeg  -15.4245 14.7894 -12.1458
LeftLeg  36.899 6.4564 5.54669
LeftFoot  -11.1147 0.056457 7.72482
LeftToes  -6.36679e-011 4.33698e-011 -8.22343e-012
109
root  -40.9585 38.3036 -7.18061 -117.37 -83.127 106.276
RightUpLeg  -9.09941 0.233647 -13.0882
RightLeg  67.549 -6.31612 -17.0632
RightFoot  -8.98258 -0.0410036 -0.965246
RightToes  1.74622e-010 0 -3.6325e-017
Spine  13.249 1.6731 2.17851
Spine1  7.29933 4.28501 -8.22894
HEad  -10.9131 -4.46869 2.46597
LeftShoulder1  8.75754 -11.7508 -50.1182
LeftArm  -27.0968 23.8503 -22.8957
LeftForeArm  143.243 -82.0721 -92.1398
LeftHand  -0.244104 0.0205437 5.32207
RightShoulder  7.63534 10.958 46.1516
RightArm  8.07913 -7.5235 37.7137
RightForeArm  111.125 80.1745 50.585
RightHand  -0.189358 -6.29661 16.7604
LeftUpLeg  -11.877 15.0045 -10.3136
LeftLeg  34.5671 6.77562 5.3593
LeftFoot  -11.3689 0.0710034 6.65629
LeftToes  -6.36679e-011 4.33698e-011 -8.22343e-012
110
root  -42.2861 38.956 -7.2318 -124.941 -84.1241 114.34
RightUpLeg  -13.1767 -1.91449 -11.4338
RightLeg  60.6374 -7.66018 -14.9628
RightFoot  -8.77703 -0.0537009 -0.263036
RightToes  1.74622e-010 0 -3.6325e-017
Spine  12.8879 0.889363 0.552135
Spine1  7.61059 2.27001 -4.51369
HEad  -11.4045 -1.71511 1.02413
LeftShoulder1  8.73192 -11.7342 -50.0138
LeftArm  -27.7579 21.6461 -26.5127
LeftForeArm  146.648 -81.834 -99.0256
LeftHand  -0.244104 0.0205437 5.32207
RightShoulder  7.36666 10.7004 45.3057
RightArm  6.15163 -10.3351 35.31
RightForeArm  87.0299 76.8015 36.4641
RightHand  -0.381236 -7.86979 15.2755
LeftUpLeg  -8.15905 14.8584 -8.35684
LeftLeg  31.0925 7.05265 4.92048
LeftFoot  -11.0682 0.0518638 5.96621
LeftToes  -6.36679e-011 4.33698e-011 -8.22343e-012
111
root  -43.6036 39.6006 -7.29495 -135.818 -84.7272 125.766
RightUpLeg  -15.8741 -4.32232 -9.58972
RightLeg  50.2893 -8.36018 -11.0073
RightFoot  -7.89608 -0.0665057 0.431329
RightToes  1.74622e-010 0 -3.6325e-017
Spine  12.4746 0.322591 -0.757493
Spine1  8.00041 0.703062 -1.71107
HEad  -12.6454 0.559814 -0.264845
LeftShoulder1  8.38299 -11.5418 -48.6323
LeftArm  -24.0838 19.5143 -28.8666
LeftForeArm  150.338 -81.1932 -109.638
LeftHand  -0.244104 0.0205437 5.32207
RightShoulder  6.90625 10.278 43.7063
RightArm  7.98421 -12.5492 31.0568
RightForeArm  63.939 74.3684 33.069
RightHand  -0.471485 -10.0047 9.66181
LeftUpLeg  -4.19078 15.0808 -6.52356
LeftLeg  26.8982 7.22878 4.32492
LeftFoot  -11.3282 0.06764 4.72042
LeftToes  -6.36679e-011 4.33698e-011 -8.22343e-012
